<?xml version="1.0" encoding="UTF-8"?>
<svg width="21px" height="21px" viewBox="0 0 21 21" version="1.1" xmlns="http://www.w3.org/2000/svg" xmlns:xlink="http://www.w3.org/1999/xlink">
    <!-- Generator: Sketch 46.2 (44496) - http://www.bohemiancoding.com/sketch -->
    <title>Combined Shape</title>
    <desc>Created with Sketch.</desc>
    <defs></defs>
    <g id="Page-1" stroke="none" stroke-width="1" fill="none" fill-rule="evenodd">
        <g id="Payment" transform="translate(-1000.000000, -327.000000)" fill="#243958">
            <g transform="translate(947.000000, 0.000000)" id="Content">
                <g transform="translate(33.000000, 122.000000)">
                    <g id="Payment" transform="translate(0.000000, 188.000000)">
                        <g id="1">
                            <path d="M24.8874677,27.8867764 C26.740536,27.7014695 28.460415,28.4079518 30.4929993,29.3981852 C29.0684531,31.2512535 27.2501298,32.4094212 25.4318065,32.4094212 C22.3047537,32.4094212 21.3782196,29.9541057 22.9243734,28.6106312 C23.4397581,28.1589458 24.3836647,27.9388939 24.8874677,27.8867764 Z M36.5502164,29.583492 C35.7452898,29.3113226 34.662403,28.9001731 33.4579086,28.471651 C34.1817634,27.2208299 34.7608473,25.7904928 35.1372518,24.2443389 L31.1763183,24.2443389 L31.1763183,22.8197927 L36.0290409,22.8197927 L36.0290409,22.0264478 L31.1763183,22.0264478 L31.1763183,19.652204 L29.2016424,19.652204 C28.854192,19.652204 28.854192,19.9938635 28.854192,19.9938635 L28.854192,22.0264478 L23.943561,22.0264478 L23.943561,22.8197927 L28.8484012,22.8197927 L28.8484012,24.2443389 L24.7948143,24.2443389 L24.7948143,25.0376838 L32.6529821,25.0376838 C32.369231,26.0221264 31.9812448,26.9486605 31.5237686,27.7941229 C28.9700088,26.9544514 26.2483147,26.2769233 24.5400174,26.6938636 C23.4455489,26.966033 22.7448574,27.4408818 22.3279171,27.9446847 C20.428522,30.2494385 21.7893691,33.7471049 25.8024202,33.7471049 C28.1766639,33.7471049 30.4582543,32.4267937 32.2302509,30.2552293 C34.8708732,31.5234229 40.1000004,33.6949874 40.1000004,33.6949874 L40.1000004,33.8281766 C40.1000004,35.6001732 38.6580816,37.0363012 36.8802942,37.0363012 L23.2197062,37.0363012 C21.4419188,37.0363012 20,35.6001732 20,33.8281766 L20,20.2081245 C20,18.4361279 21.4419188,17 23.2197062,17 L36.8802942,17 C38.6580816,17 40.1000004,18.4361279 40.1000004,20.2081245 L40.1000004,30.6026796 C40.1000004,30.6026796 39.4456356,30.5505621 36.5502164,29.583492 Z" id="Combined-Shape"></path>
                        </g>
                    </g>
                </g>
            </g>
        </g>
    </g>
</svg>