<?xml version="1.0" encoding="UTF-8"?>
<svg width="74px" height="59px" viewBox="0 0 74 59" version="1.1" xmlns="http://www.w3.org/2000/svg" xmlns:xlink="http://www.w3.org/1999/xlink">
    <!-- Generator: Sketch 46.2 (44496) - http://www.bohemiancoding.com/sketch -->
    <title>if_wake_up_215142</title>
    <desc>Created with Sketch.</desc>
    <defs></defs>
    <g id="Page-1" stroke="none" stroke-width="1" fill="none" fill-rule="evenodd" stroke-linecap="round" stroke-linejoin="round">
        <g id="Time-Up" transform="translate(-1142.000000, -373.000000)" stroke="#243958" stroke-width="2">
            <g id="Waiting-List" transform="translate(980.000000, 0.000000)">
                <g id="Content" transform="translate(67.000000, 370.000000)">
                    <g id="Info">
                        <g id="if_wake_up_215142" transform="translate(92.000000, 0.000000)">
                            <path d="M40,26.843932 L40,39.9333889" id="rect6287-6-2-2-2-1-2-3-4-5-3"></path>
                            <path d="M53.4541144,48.303858 L40.0230551,39.9333889" id="rect6287-6-2-2-2-1-2-3-4-5-5-1"></path>
                            <path d="M59.7127154,39.9449212 C59.7127154,50.8319938 50.8870513,59.6577101 39.9999556,59.6577101 C29.11286,59.6577101 20.2871959,50.8319938 20.2871959,39.9449212 C20.2871959,29.0578482 29.11286,20.2321328 39.9999556,20.2321328 C50.8870513,20.2321328 59.7127154,29.0578482 59.7127154,39.9449212 Z" id="path4414-2"></path>
                            <path d="M19.5772657,21.2297097 C22.8009277,18.0601569 27.9088892,18.1824497 30.9860441,21.502857 C33.7188466,24.4515656 33.9719872,29.0064296 31.5838415,32.2571284" id="path4456-0-3" transform="translate(26.397904, 25.593709) scale(-1, 1) translate(-26.397904, -25.593709) "></path>
                            <path d="M46.7813994,21.2297097 C50.0050614,18.0601569 55.1130229,18.1824497 58.1901778,21.502857 C60.9229803,24.4515656 61.1761209,29.0064296 58.7879752,32.2571284" id="path4456-0-8-3"></path>
                            <path d="M52.1912492,56.3273873 L56.5671417,60.7032905" id="rect6287-6-2-2-2-1-2-3-4-5-2-1"></path>
                            <path d="M27.8086991,56.3273873 L23.4328066,60.7032905" id="rect6287-6-2-2-2-1-2-3-4-5-2-7-1"></path>
                            <path d="M48.5531458,11.468959 C50.1671612,12.6159296 51.9009651,13.6053246 53.7321828,14.4147519 C55.5633435,15.2241793 57.491861,15.853639 59.4953602,16.280739 C61.4988025,16.7078447 63.5772266,16.9325908 65.7080866,16.9325908 C67.8390036,16.9325908 69.9172569,16.7078447 71.9205853,16.2807447 C73.9239138,15.853639 75.8522035,15.2241793 77.6831934,14.4147519 C79.5141264,13.6053246 81.2477026,12.6159296 82.8616041,11.468959" id="path5989-9-5-4-9-8" transform="translate(65.707375, 14.200775) scale(-1, 1) rotate(135.000000) translate(-65.707375, -14.200775) "></path>
                            <path d="M47.7999817,16.9124487 C49.0264489,17.7982527 50.3463444,18.5627821 51.7419618,19.1884614 C53.1376362,19.8141408 54.6091463,20.3009757 56.1387858,20.6313908 C57.6684253,20.9618002 59.256308,21.1357955 60.8847276,21.1357955 C62.5131472,21.1357955 64.1009161,20.9618002 65.6303848,20.6313908 C67.1599104,20.3009757 68.6311358,19.8141408 70.0265825,19.1884614 C71.422086,18.5627821 72.7416968,17.7982527 73.9679932,16.9124487" id="path5989-98-4-2-5-7" transform="translate(60.883987, 19.024122) scale(-1, 1) rotate(135.000000) translate(-60.883987, -19.024122) "></path>
                            <path d="M-2.86160603,11.4689582 C-1.24759069,12.6159344 0.486213293,13.6053294 2.31743095,14.4147568 C4.14859167,15.2241841 6.07710913,15.8536438 8.08060836,16.2807439 C10.0840507,16.7078496 12.1624178,16.9325957 14.2933348,16.9325957 C16.4242518,16.9325957 18.5025051,16.7078496 20.5058335,16.2807439 C22.5091619,15.8536438 24.4374516,15.2241841 26.2684416,14.4147568 C28.0993746,13.6053294 29.8329508,12.6159344 31.4468523,11.4689582" id="path5989-9-5-4-9-8-2" transform="translate(14.292623, 14.200777) rotate(135.000000) translate(-14.292623, -14.200777) "></path>
                            <path d="M6.03200286,16.9124487 C7.25847005,17.7982527 8.57836555,18.5627821 9.97398296,19.1884614 C11.3696573,19.8141408 12.8411674,20.3009757 14.3708069,20.6313908 C15.9004464,20.9618002 17.4883292,21.1357955 19.1167487,21.1357955 C20.7451683,21.1357955 22.3329372,20.9618002 23.8624059,20.6313908 C25.3919315,20.3009757 26.863157,19.8141408 28.2586036,19.1884614 C29.6541071,18.5627821 30.9737179,17.7982527 32.2000143,16.9124487" id="path5989-98-4-2-5-7-7" transform="translate(19.116009, 19.024122) rotate(135.000000) translate(-19.116009, -19.024122) "></path>
                        </g>
                    </g>
                </g>
            </g>
        </g>
    </g>
</svg>