<?xml version="1.0" encoding="UTF-8"?>
<svg width="60px" height="60px" viewBox="0 0 60 60" version="1.1" xmlns="http://www.w3.org/2000/svg" xmlns:xlink="http://www.w3.org/1999/xlink">
    <!-- Generator: Sketch 46.2 (44496) - http://www.bohemiancoding.com/sketch -->
    <title>3</title>
    <desc>Created with Sketch.</desc>
    <defs>
        <circle id="path-1" cx="30" cy="30" r="30"></circle>
        <circle id="path-3" cx="30" cy="30" r="25"></circle>
    </defs>
    <g id="Page-1" stroke="none" stroke-width="1" fill="none" fill-rule="evenodd">
        <g id="No-of-Guests" transform="translate(-1193.000000, -272.000000)">
            <g transform="translate(947.000000, 0.000000)" id="Content">
                <g transform="translate(70.000000, 272.000000)">
                    <g id="3" transform="translate(176.000000, 0.000000)">
                        <mask id="mask-2" fill="white">
                            <use xlink:href="#path-1"></use>
                        </mask>
                        <circle stroke="#C49650" cx="30" cy="30" r="29.5"></circle>
                        <g id="Page-1" mask="url(#mask-2)" stroke="#C49650">
                            <g transform="translate(-11.000000, -9.000000)">
                                <path d="M51,1 L45,26" id="Stroke-4"></path>
                                <path d="M66,8 L50,28" id="Stroke-9"></path>
                                <path d="M78,22 L55,34" id="Stroke-11"></path>
                                <path d="M33,1 L39,26" id="Stroke-15"></path>
                                <path d="M17,8 L33,28" id="Stroke-20"></path>
                                <path d="M6,22 L29,34" id="Stroke-22"></path>
                                <path d="M0,40 L27,40" id="Stroke-26"></path>
                                <path d="M56,40 L83,40" id="Stroke-28"></path>
                            </g>
                        </g>
                        <g id="Page-1-Copy" mask="url(#mask-2)" stroke="#C49650">
                            <g transform="translate(31.000000, 50.500000) scale(1, -1) translate(-31.000000, -50.500000) translate(-11.000000, 30.000000)">
                                <path d="M51,1 L45,26" id="Stroke-4"></path>
                                <path d="M66,9 L50,29" id="Stroke-9"></path>
                                <path d="M78,21 L55,33" id="Stroke-11"></path>
                                <path d="M33,1 L39,26" id="Stroke-15"></path>
                                <path d="M17,9 L33,29" id="Stroke-20"></path>
                                <path d="M6,21 L29,33" id="Stroke-22"></path>
                                <path d="M0,40 L27,40" id="Stroke-26"></path>
                                <path d="M56,40 L83,40" id="Stroke-28"></path>
                            </g>
                        </g>
                        <g id="Oval-4" mask="url(#mask-2)">
                            <use fill="#FCF9F6" fill-rule="evenodd" xlink:href="#path-3"></use>
                            <circle stroke="#C49650" stroke-width="1" cx="30" cy="30" r="24.5"></circle>
                        </g>
                    </g>
                </g>
            </g>
        </g>
    </g>
</svg>