<?xml version="1.0" encoding="UTF-8"?>
<svg width="36px" height="36px" viewBox="0 0 36 36" version="1.1" xmlns="http://www.w3.org/2000/svg" xmlns:xlink="http://www.w3.org/1999/xlink">
    <!-- Generator: Sketch 46.2 (44496) - http://www.bohemiancoding.com/sketch -->
    <title>Flower</title>
    <desc>Created with Sketch.</desc>
    <defs></defs>
    <g id="Page-1" stroke="none" stroke-width="1" fill="none" fill-rule="evenodd" opacity="0.289999992">
        <g id="No-Availability" transform="translate(-1159.000000, -317.000000)" fill="#B1884A">
            <g id="Waiting-List" transform="translate(947.000000, 0.000000)">
                <g id="Content" transform="translate(80.000000, 315.000000)">
                    <g id="Info">
                        <g id="Flower" transform="translate(130.000000, 0.000000)">
                            <path d="M6.24923083,8.85115963 L13.6371596,8.0269121 L18.2093626,2.35294118 L24.1639065,7.05627138 L31.1954242,6.21787849 L31.9182308,13.5833419 L37.6470588,18.2563606 L32.9828643,23.9354957 L33.7645679,31.2465107 L26.4028903,32.0009296 L21.896652,37.6470588 L16.0613606,33.0620556 L8.81254091,33.7575355 L8.06639993,26.4707697 L2.35294118,21.8315427 L7.01567726,16.147917 L6.24923083,8.85115963 Z M23.9156717,25.468936 C23.9463196,25.4532749 23.9893571,25.4382663 24.0245695,25.4121644 C24.3121382,25.2026965 24.5755798,24.9658217 24.8220672,24.710023 C25.3020004,24.2114765 25.6965107,23.6528957 26.0062502,23.0342804 C26.0414626,22.9631527 26.0714585,22.8887623 26.0929772,22.8117616 C26.099498,22.7882699 26.0773272,22.7438967 26.0551564,22.7262779 C26.020596,22.6988709 25.9762543,22.6819046 25.9332168,22.6688537 C25.3535149,22.4933183 24.773161,22.3190881 24.1934591,22.1442053 C24.1719403,22.1376798 24.1491174,22.1324594 24.1269466,22.1291967 C24.0663029,22.1194085 24.0128321,22.1311543 23.973055,22.1814005 C23.9521883,22.208155 23.93393,22.2375196 23.9169758,22.2668843 C23.6561426,22.7164897 23.3333614,23.1145438 22.9421116,23.4564788 C22.9166803,23.4786654 22.8899449,23.5041148 22.8762512,23.5334794 C22.8625574,23.5628441 22.8573408,23.5993867 22.8619053,23.6313616 C22.8664699,23.663989 22.8847283,23.6959638 22.9010303,23.725981 C23.1931636,24.2695533 23.4859489,24.8137781 23.7793863,25.3573503 C23.7956884,25.3873675 23.8159029,25.4160796 23.84003,25.4395714 C23.8543759,25.4539274 23.8804592,25.4558851 23.9156717,25.468936 Z M17.2650759,26.1541111 C17.2833342,26.1410602 17.304853,26.1306194 17.3178946,26.1130006 C17.3381092,26.0862462 17.3570196,26.056229 17.3668009,26.0236016 C17.5474279,25.4226051 17.7274028,24.8209561 17.9060736,24.2193071 C17.9386778,24.108374 17.9158549,24.0594329 17.8108695,23.9922205 C17.7821778,23.9739491 17.7515299,23.9576355 17.7221862,23.9400167 C17.3146342,23.7011842 16.9546843,23.4049275 16.638424,23.0545094 C16.6077761,23.0205769 16.5771282,22.9866444 16.5451761,22.9546696 C16.4975741,22.9063811 16.4447553,22.8946352 16.3899804,22.9181269 C16.3691137,22.9272626 16.348247,22.9357457 16.3280325,22.946839 C15.7757181,23.2450533 15.2227516,23.5432676 14.6710893,23.8421345 C14.6508747,23.8532278 14.6332684,23.8682364 14.614358,23.8812874 C14.5784935,23.9067367 14.5602351,23.9680762 14.5811018,24.0013562 C14.6110976,24.0496447 14.6404413,24.0992383 14.6756538,24.1436116 C15.3133911,24.9729997 16.1004555,25.6203271 17.0401072,26.0803732 C17.0909697,26.1051701 17.1444405,26.1260516 17.1972593,26.145628 C17.2181259,26.152806 17.242253,26.1521535 17.2650759,26.1541111 Z M25.416767,16.1446814 C25.4141587,16.1224948 25.4187233,16.097698 25.4095941,16.0794267 C25.3887274,16.0383161 25.3639483,15.9991633 25.3365608,15.9632732 C24.6838256,15.1123509 23.879155,14.4493624 22.9095074,13.9893163 C22.8684262,13.9697398 22.8247366,13.9560363 22.7816991,13.9416803 C22.7458345,13.9292819 22.6773658,13.9586465 22.6643242,13.9919264 C22.6428054,14.0454354 22.6206346,14.0982917 22.6036804,14.1531057 C22.4387034,14.7005933 22.2750305,15.2487334 22.1113577,15.7962209 C22.1015764,15.8295009 22.0957077,15.8634334 22.0885348,15.8973658 C22.0722327,15.9756716 22.0944035,16.0383161 22.1537431,16.0768165 C22.192216,16.1022658 22.231993,16.125105 22.2717701,16.1479442 C22.6799742,16.3867766 23.0425324,16.6817282 23.3581406,17.034104 C23.3809635,17.0602059 23.4037864,17.0856553 23.4272614,17.1104521 C23.5048593,17.1900629 23.549201,17.1998511 23.6385363,17.1574355 C23.659403,17.1476473 23.6802697,17.1385116 23.7004842,17.1274183 C24.224107,16.8448651 24.7477297,16.562312 25.2707004,16.2791063 C25.3104775,16.2575722 25.3489504,16.2314703 25.3835108,16.2027582 C25.3998128,16.1897072 25.4056816,16.1642579 25.416767,16.1446814 Z M19.9360084,26.760328 C20.2920458,26.7616331 20.5991769,26.7414041 20.9063081,26.6989885 C21.3497246,26.6383016 21.7814036,26.5319363 22.2039535,26.3883758 C22.2574243,26.3701044 22.3108951,26.3440025 22.3552368,26.3107226 C22.3767555,26.2944089 22.3917534,26.2500356 22.3878409,26.2213235 C22.3813201,26.1776028 22.3598013,26.1345347 22.3389347,26.0947293 C22.0578869,25.5707335 21.7761869,25.0467376 21.493835,24.5233943 C21.4723162,24.4835889 21.4475371,24.4424784 21.415585,24.4118087 C21.3934142,24.3902746 21.3549412,24.3726558 21.3255975,24.375266 C21.2466954,24.382444 21.1671413,24.395495 21.0895434,24.415724 C20.7902373,24.4946822 20.4850624,24.5377504 20.1746708,24.539708 C20.0377333,24.5410131 19.9001438,24.5384029 19.7632063,24.5390555 C19.705823,24.5390555 19.6490918,24.5384029 19.5923606,24.5436233 C19.5434543,24.5475386 19.5049814,24.5755982 19.4867231,24.6193189 C19.4567273,24.6930568 19.4299919,24.7687523 19.4065169,24.8457529 C19.2571898,25.3377739 19.109167,25.8304475 18.9617962,26.323121 C18.9389733,26.3994691 18.9226712,26.4784274 18.905717,26.5567331 C18.8933275,26.6148098 18.9331045,26.6683187 18.9937483,26.6807172 C19.3204419,26.7492347 19.6510481,26.7642433 19.9360084,26.760328 Z M20.0455583,13.3269803 C19.7514689,13.3178446 19.4788981,13.3472093 19.2056753,13.3772265 C18.7374796,13.4281252 18.2842818,13.5397109 17.8369528,13.6826188 C17.7821778,13.6995851 17.7300112,13.7237293 17.6778445,13.745916 C17.6100279,13.7746281 17.587205,13.8431456 17.6211133,13.917536 C17.6302425,13.937765 17.6380675,13.9599516 17.6485008,13.9801806 C17.9360694,14.5133121 18.2242902,15.0464436 18.5125109,15.5802276 C18.528813,15.6102448 18.5470713,15.6396095 18.5685901,15.6657114 C18.5985859,15.700949 18.6364067,15.7290085 18.6866171,15.7198728 C18.7537817,15.708127 18.8222504,15.6970337 18.8881108,15.6787623 C19.2780565,15.5743547 19.674523,15.5338967 20.0768583,15.5449901 C20.1564125,15.5469477 20.2366187,15.5489053 20.3168249,15.5482528 C20.3507332,15.5482528 20.3865978,15.5489053 20.4185499,15.537812 C20.4485457,15.5280238 20.4798457,15.5084474 20.5007124,15.4843031 C20.5222311,15.4588538 20.5346207,15.4249213 20.545054,15.3922939 C20.7230727,14.8010856 20.9010914,14.2105299 21.0778059,13.6186691 C21.0875872,13.5866943 21.0869351,13.5508042 21.0901955,13.5168717 C21.0934559,13.4842443 21.0465059,13.4196421 21.0152059,13.4118115 C20.9930351,13.4065911 20.9715164,13.398108 20.9486935,13.3954978 C20.6422144,13.3602602 20.3370395,13.3080564 20.0455583,13.3269803 Z M24.4953736,20.035171 C24.4953736,20.1265277 24.4953736,20.2178844 24.4960256,20.3098936 C24.4960256,20.355572 24.4966777,20.4012503 24.4999381,20.4469286 C24.5025465,20.4952172 24.5247173,20.5350226 24.569059,20.5559041 C24.6101402,20.5761331 24.6518735,20.5957095 24.6955631,20.6087605 C25.2537462,20.7771178 25.8119294,20.9448226 26.3707646,21.1112222 C26.4144542,21.1242732 26.4601,21.1281885 26.5057458,21.136019 C26.5592166,21.1438496 26.6185562,21.1001289 26.6322499,21.0440098 C26.6348583,21.0329165 26.640727,21.0224757 26.6420312,21.0113824 C26.6668104,20.7268716 26.6974583,20.4423608 26.7150645,20.1565449 C26.7326708,19.8700764 26.695502,19.5855656 26.6661583,19.3010548 C26.6133395,18.7737962 26.4914,18.2641565 26.3127292,17.7669151 C26.3016438,17.7355928 26.2859938,17.7010078 26.2612147,17.6807788 C26.2383917,17.6612024 26.2005709,17.650109 26.1705751,17.6507616 C26.1379709,17.6520667 26.1040626,17.6690329 26.0747189,17.6846941 C25.5406628,17.9718151 25.0072588,18.2595886 24.4738548,18.5473622 C24.4536402,18.5578029 24.4340777,18.5702014 24.4145153,18.5819472 C24.3251799,18.6374138 24.3049653,18.6837447 24.3258319,18.7809743 C24.3408299,18.8481867 24.3564799,18.9147466 24.3727819,18.981959 C24.4569007,19.3278093 24.5071111,19.6782274 24.4953736,20.035171 Z M17.1450926,16.4879215 C17.132703,16.4559467 17.1222697,16.4109209 17.101403,16.3711155 C16.9501198,16.0885623 16.7975323,15.8066617 16.6455969,15.5247611 C16.5040949,15.2630894 16.363245,15.0007652 16.2204388,14.7397462 C16.19892,14.7005933 16.1682721,14.6653557 16.13632,14.6333809 C16.1232784,14.6209825 16.08937,14.614457 16.07372,14.6222876 C16.0130763,14.6523048 15.9517805,14.6842796 15.8989618,14.7260426 C15.1184183,15.3316069 14.5002435,16.0742063 14.041177,16.9492728 C13.9981395,17.0301887 13.9583624,17.1124097 13.9211937,17.1959358 C13.9074999,17.2266056 13.900327,17.2618431 13.8996749,17.2957756 C13.8996749,17.3160046 13.9127166,17.3434116 13.9290187,17.3545049 C13.9661874,17.3793017 14.0066166,17.4014884 14.049002,17.4145393 C14.6287039,17.5907272 15.2090578,17.76561 15.7894118,17.9404928 C15.822016,17.950281 15.8565764,17.9561539 15.8904847,17.9587641 C15.9367826,17.9620269 15.9817763,17.9555014 16.0130763,17.9143909 C16.0398117,17.8771957 16.0685034,17.8413055 16.0913263,17.8021527 C16.3430304,17.3740814 16.6514657,16.9929935 17.022501,16.6628043 C17.0564093,16.6327871 17.0883614,16.5995072 17.117053,16.5642696 C17.1300947,16.5473034 17.132703,16.5225066 17.1450926,16.4879215 Z M13.2912814,19.9921029 C13.2919335,20.3523092 13.3075834,20.6824984 13.3571418,21.0126875 C13.4203938,21.4329283 13.5208146,21.8427282 13.6538396,22.2446977 C13.6681854,22.2877658 13.6884,22.3295289 13.7066583,22.3712919 C13.7340458,22.4319789 13.7894729,22.4574282 13.8462041,22.4339365 C13.8983708,22.4124024 13.9505374,22.3895632 14.0007478,22.3628088 C14.4845935,22.1030948 14.9677871,21.8427282 15.4509807,21.5817092 C15.5011911,21.5549547 15.5487931,21.524285 15.5970473,21.4929627 C15.6622556,21.4505471 15.6824702,21.3892076 15.6687764,21.3148171 C15.6602993,21.2697913 15.6524744,21.2247655 15.6407369,21.1803923 C15.563139,20.8919662 15.5194494,20.5983197 15.5096681,20.3001054 C15.5057556,20.1630704 15.5051036,20.0253828 15.5044515,19.8883478 C15.5037994,19.8426694 15.5090161,19.7969911 15.5096681,19.7513128 C15.5135806,19.5790402 15.4946702,19.5496755 15.343387,19.4968191 C15.3218682,19.4896411 15.3010015,19.4805054 15.2788307,19.47398 C14.7206476,19.3056227 14.1624644,19.1379179 13.6042813,18.9702131 C13.5716771,18.9610774 13.5371167,18.9578147 13.5032084,18.9525943 C13.4393042,18.941501 13.3845293,18.9741284 13.3721397,19.0302475 C13.366923,19.0530867 13.3623584,19.0752733 13.3577938,19.0974599 C13.2899772,19.4021997 13.2951939,19.7115073 13.2912814,19.9921029 Z M20.0409938,22.9337881 C21.7116307,22.9116014 22.9408074,21.4949203 22.8873366,19.9483822 C22.8325616,18.3626912 21.4957912,17.0967486 19.8871021,17.1541728 C18.5151193,17.2037664 17.0922739,18.3274536 17.1105322,20.0723662 C17.1287905,21.8101009 18.5457672,22.9690256 20.0409938,22.9337881 Z M29.5027198,8.08636944 C29.2953574,8.11051371 29.0795179,8.13661562 28.8636784,8.1581497 C28.5337243,8.19077708 28.2031182,8.21753154 27.8731641,8.25146402 C27.3280226,8.30823567 26.7828812,8.37218535 26.2370876,8.42830446 C25.6802086,8.48507611 25.1220254,8.53336464 24.5644944,8.5901363 C24.2130216,8.62667897 24.2534507,8.64560285 24.169332,8.92293564 C23.8491592,9.97288495 23.5381155,11.0254444 23.2244636,12.0773514 C23.1586032,12.2985651 23.1716448,12.3240144 23.3783552,12.421244 C23.4090031,12.4356001 23.4409552,12.4486511 23.4722551,12.4630071 C24.7868547,13.0711816 25.8725731,13.9592991 26.7300624,15.1273595 C26.7639707,15.1736904 26.7965749,15.2206738 26.8324395,15.2656996 C26.8950394,15.3466155 26.9556832,15.3635818 27.0398019,15.3211662 C27.1323977,15.2754878 27.2230373,15.2271993 27.3136768,15.1789108 C27.8972912,14.8637302 28.4809056,14.5492022 29.06452,14.2340217 C29.4068636,14.0493506 29.7498594,13.8659847 30.0908988,13.6793561 C30.2989133,13.5651602 30.3099988,13.541016 30.28848,13.2969631 C30.2852196,13.2512848 30.2780467,13.206259 30.2734821,13.1605806 C30.2376175,12.8303915 30.2004488,12.5015074 30.1665405,12.1713183 C30.1345884,11.8522224 30.107853,11.5331266 30.076553,11.2146833 C30.0517738,10.964105 30.0243863,10.7141792 29.9976509,10.4636008 C29.9617864,10.1340642 29.9246176,9.80452763 29.8920135,9.47433848 C29.8594093,9.15589518 29.8326739,8.83614679 29.8000698,8.5177035 C29.7902885,8.4152535 29.770726,8.3141086 29.7537719,8.21231116 C29.7498594,8.19012453 29.7433385,8.16663282 29.7309489,8.14836148 C29.7192114,8.13009014 29.700301,8.10920862 29.6813906,8.10529333 C29.6253115,8.09550511 29.5685802,8.09289492 29.5027198,8.08636944 Z M9.72177836,26.849727 C9.72112628,26.849727 9.7204742,26.8503796 9.71982211,26.8503796 C9.72960336,26.9645754 9.73677627,27.0781187 9.74981794,27.1923146 C9.78307418,27.499012 9.82154708,27.8057094 9.85284707,28.1130594 C9.88610331,28.4432486 9.91218663,28.7747428 9.94479079,29.1042794 C9.97087411,29.3776969 10.0008699,29.6511144 10.0302137,29.9238794 C10.064122,30.2429752 10.1006387,30.560766 10.1332428,30.8798618 C10.1645428,31.1865593 10.1912782,31.4945618 10.2219261,31.8019118 C10.2264907,31.8469376 10.2375761,31.893921 10.2584428,31.9324213 C10.2727886,31.9591758 10.3066969,31.9846251 10.3366927,31.9911506 C10.3803823,32.0015914 10.4279844,31.9983286 10.4729781,31.9937608 C10.8714009,31.9572181 11.2698237,31.9193704 11.6682465,31.8802175 C11.9871151,31.8482427 12.3046796,31.8117 12.6235483,31.7797252 C12.9417648,31.7477503 13.2612855,31.7196908 13.5795021,31.6883685 C13.8188166,31.6648768 14.056827,31.6394274 14.2961415,31.6146306 C14.6489184,31.5774354 15.0003912,31.5311045 15.3538203,31.50435 C15.775066,31.4723752 15.7418097,31.4534513 15.845491,31.1108637 C16.1467534,30.1150759 16.4434512,29.1166778 16.7414532,28.1195849 C16.7642761,28.0432368 16.7851427,27.9655836 16.8053573,27.8879305 C16.8236156,27.8168028 16.7942719,27.7548107 16.7238469,27.7189206 C16.6521178,27.683683 16.5790845,27.6510556 16.5067032,27.6171232 C15.2142745,27.0174318 14.143554,26.1449755 13.2945418,24.9991016 C13.2404189,24.9260163 13.1836877,24.854236 13.1263043,24.7824558 C13.0982648,24.7472182 13.0408815,24.7322096 13.0024085,24.750481 C12.9098127,24.7948542 12.8165649,24.8392274 12.7259253,24.8881685 C11.8097485,25.3814946 10.8942238,25.8767783 9.97804703,26.3714095 C9.91805538,26.4040369 9.85675957,26.4366643 9.79872417,26.4719019 C9.73416794,26.5104022 9.7048242,26.569784 9.7087367,26.6441745 C9.7126492,26.712692 9.71721378,26.7812095 9.72177836,26.849727 Z M18.4714297,28.2468317 C18.4453464,28.2657556 18.4068735,28.2788066 18.3938318,28.3042559 C18.3586193,28.3753836 18.3292756,28.4504266 18.3064527,28.5261221 C17.995409,29.5558425 17.6869737,30.5862153 17.3778863,31.6172408 C17.3583238,31.6824955 17.3433259,31.749708 17.3250676,31.8162678 C17.3042009,31.8906583 17.3296321,31.9506927 17.3857113,31.9996337 C17.4457029,32.0524901 17.5069987,32.1040414 17.5695987,32.1542876 C18.7759525,33.1383295 19.9829584,34.1223715 21.1899642,35.1064135 C21.2610413,35.1644903 21.3321183,35.222567 21.4038475,35.2780336 C21.5388287,35.3824412 21.5896912,35.379831 21.6920682,35.2597622 C21.7735786,35.1638377 21.8524807,35.0659555 21.9320348,34.9680734 C22.5828138,34.1687024 23.2329406,33.3693314 23.8837196,32.5699605 C24.208457,32.1699487 24.5344985,31.7705895 24.8592359,31.3705777 C24.9087943,31.3085857 24.9570484,31.2439835 24.9974776,31.175466 C25.0131276,31.149364 25.016388,31.1062959 25.0066067,31.0775838 C24.9857401,31.0129816 24.9557442,30.950337 24.9237922,30.88965 C24.7457735,30.5568507 24.5664506,30.2247039 24.3871278,29.8919046 C24.0558695,29.2772046 23.7252634,28.6618521 23.392701,28.0478047 C23.3490114,27.9675413 23.3007573,27.8898881 23.2525031,27.8122349 C23.2335927,27.7822177 23.1638198,27.7606837 23.1279553,27.7730821 C23.031447,27.8076671 22.9349387,27.8435572 22.8377783,27.8781422 C21.9242098,28.203111 20.983906,28.3727734 20.0129542,28.3760362 C19.5421502,28.3773413 19.0759107,28.340146 18.6122796,28.2598827 C18.567938,28.2527046 18.5222922,28.2513996 18.4714297,28.2468317 Z M28.201814,21.5073187 C28.1985536,21.606506 28.2324619,21.654142 28.3120161,21.6848117 C28.3654869,21.7050407 28.4196098,21.723312 28.4743848,21.7396257 C29.5138053,22.0528486 30.5545299,22.365419 31.5946025,22.6766843 C31.6604629,22.6969132 31.7282795,22.7093116 31.7954441,22.72171 C31.8430462,22.7301932 31.8880399,22.714532 31.9212961,22.6812521 C31.9617253,22.6414467 31.998894,22.5970734 32.0347586,22.5527002 C33.0833083,21.265876 34.1312058,19.9790519 35.1791034,18.6909227 C35.3538617,18.476887 35.3519054,18.4749294 35.1269368,18.2869956 C35.0923764,18.257631 35.0565118,18.2289189 35.0212993,18.2002068 C33.850158,17.2455295 32.6783647,16.2908521 31.5078754,15.3355222 C31.4185401,15.263742 31.3265963,15.1952245 31.2424776,15.1175713 C31.1361881,15.0209942 31.0318548,15.0007652 30.9014381,15.0771133 C30.7142903,15.1873939 30.5199695,15.2846235 30.3282571,15.3877261 C29.5633636,15.8001362 28.797818,16.2131989 28.0322724,16.6256091 C27.9520662,16.6693298 27.8731641,16.7156607 27.7949142,16.7632967 C27.7329663,16.8004919 27.7094913,16.8683569 27.7342704,16.9420948 C27.7675267,17.0399769 27.8053475,17.1359014 27.8399079,17.2324785 C28.1724703,18.1701896 28.3217973,19.1379179 28.3296223,20.130443 C28.3302744,20.2217997 28.3302744,20.3138089 28.3185369,20.404513 C28.280064,20.7223038 28.2865848,21.0453149 28.2168119,21.3604955 C28.2050744,21.415962 28.2050744,21.4740388 28.201814,21.5073187 Z M14.9762642,8.97187672 C15.0010433,9.0945557 15.0734245,9.19961588 15.1327641,9.3092439 C15.6205223,10.2169378 16.1095846,11.1239792 16.598647,12.0310205 C16.6364678,12.1014957 16.6762449,12.1713183 16.7179782,12.2391832 C16.7603636,12.3096584 16.8210073,12.3338027 16.8920844,12.3096584 C16.9788114,12.2802937 17.0642343,12.2463613 17.1496572,12.2156915 C18.0847444,11.8763667 19.0498274,11.7145349 20.04295,11.7106196 C20.466804,11.7086619 20.8873976,11.7530352 21.3066871,11.8169848 C21.3745037,11.8274256 21.4429725,11.8339511 21.5114412,11.8339511 C21.5577391,11.8332985 21.6027328,11.8117645 21.6203391,11.764781 C21.6535953,11.6792973 21.6835911,11.593161 21.7103265,11.5057196 C22.0063723,10.5190674 22.302418,9.53241523 22.5978117,8.5464156 C22.623895,8.45832165 22.6493262,8.37022771 22.6701929,8.28148122 C22.686495,8.21035351 22.6728012,8.14379365 22.6147658,8.09420002 C22.5286909,8.01915703 22.4413117,7.94541913 22.3526284,7.87298634 C21.1449705,6.88894435 19.9379646,5.90620746 18.7309588,4.92216548 C18.4133943,4.66310403 18.4414339,4.65918874 18.1792964,4.98154732 C17.4920008,5.82529154 16.8053573,6.66903576 16.1180617,7.51277999 C15.7861514,7.92127487 15.453589,8.32976975 15.1223308,8.73891718 C15.0655995,8.80939233 14.9958266,8.87334201 14.9762642,8.97187672 Z M11.8012714,18.5277858 C11.8019235,18.4892854 11.766711,18.435124 11.726934,18.4214205 C11.640859,18.3907507 11.554784,18.3607335 11.4674049,18.3339791 C10.6255656,18.0807906 9.78307418,17.8289071 8.94058278,17.5757186 C8.73256827,17.5137266 8.52520583,17.4504294 8.3178434,17.3864798 C8.19655594,17.3492845 8.09613514,17.3701661 8.01332058,17.4739212 C7.84182272,17.6879568 7.66576028,17.8987297 7.49230617,18.1114603 C6.64003353,19.1581469 5.78841297,20.2041809 4.93614033,21.2508675 C4.87093202,21.3311308 4.80637579,21.4107416 4.74377581,21.4923101 C4.67987167,21.5758362 4.68248,21.6391334 4.75355706,21.7024305 C4.83050287,21.7702954 4.91005701,21.8362028 4.98961115,21.900805 C5.3084798,22.1618241 5.62800053,22.4215381 5.94686917,22.6812521 C6.85978554,23.4258091 7.77270191,24.1697135 8.68627037,24.9136179 C8.93732237,25.1178653 8.91319529,25.1087297 9.19554728,24.9573386 C10.1319386,24.4542243 11.0663738,23.9484998 12.001461,23.4434278 C12.0621047,23.4108005 12.1220963,23.3775205 12.1807838,23.3422829 C12.2746838,23.2861638 12.2948984,23.2385279 12.2629463,23.1452135 C12.236863,23.069518 12.2062151,22.9951275 12.1794796,22.9200846 C11.8514818,21.996077 11.6715069,21.0459675 11.6773756,20.0632306 C11.6786798,19.8805172 11.6819402,19.6971513 11.6884611,19.5144379 C11.6910694,19.4230812 11.6988944,19.3317246 11.7106319,19.2410204 C11.7393235,19.0256797 11.7712756,18.8109915 11.8012714,18.5956507 C11.8038798,18.5734641 11.8012714,18.5506249 11.8012714,18.5277858 Z M26.7235416,30.3415099 C26.9850269,30.3141029 27.2236893,30.288001 27.4623518,30.2638568 C27.7694829,30.233187 28.0772661,30.2044749 28.3843973,30.1738052 C28.6237118,30.1496609 28.8623742,30.123559 29.1010366,30.0987622 C29.4420761,30.0628721 29.7837677,30.0256768 30.1248071,29.9904393 C30.4430237,29.9584644 30.7625444,29.9297523 31.080761,29.8977775 C31.2516068,29.8814638 31.4224526,29.8644976 31.5926463,29.843616 C31.6832858,29.8325227 31.7726212,29.8135988 31.8619566,29.7953275 C31.8991253,29.7874969 31.9441191,29.7313778 31.9428149,29.6954877 C31.9408586,29.5923851 31.9408586,29.4892826 31.9317295,29.3868326 C31.9141232,29.1819326 31.8906482,28.9770326 31.8697816,28.7721326 C31.8410899,28.4987151 31.8130503,28.2252976 31.7843587,27.9518801 C31.7491462,27.621691 31.7113254,27.2921544 31.6780691,26.9619652 C31.645465,26.6428694 31.6180775,26.3237735 31.5867775,26.0046777 C31.5685192,25.8115236 31.5476525,25.6177169 31.5274379,25.4245628 C31.4993984,25.1511453 31.4791838,24.8764227 31.441363,24.6049628 C31.3957172,24.285867 31.4146276,24.3087061 31.1016277,24.2147393 C30.0948113,23.910652 29.087995,23.6065648 28.0785703,23.3083505 C27.6834079,23.1915444 27.7303579,23.1576119 27.5497309,23.5465304 C27.1995623,24.2995705 26.7476687,24.9853981 26.1940501,25.6040134 C25.8106252,26.0314322 25.3887274,26.4177404 24.9257484,26.7577178 C24.8618443,26.8053538 24.797288,26.8529898 24.7346881,26.9025834 C24.6929547,26.9358633 24.6779568,27.0076436 24.7033881,27.0591948 C24.7431651,27.1414159 24.7848985,27.2229843 24.827936,27.3039002 C25.1311546,27.868354 25.4350253,28.4328078 25.7388961,28.9972616 C25.9182189,29.330061 26.0975418,29.6622078 26.2775167,29.9943546 C26.326423,30.0844061 26.3766334,30.1744577 26.4294521,30.2625517 C26.4614042,30.3160606 26.5135708,30.3388998 26.5742146,30.3408574 C26.6309458,30.3434676 26.687677,30.3415099 26.7235416,30.3415099 Z M8.07266015,10.6822043 C8.07135598,10.6822043 8.06939973,10.6822043 8.06809557,10.6822043 C8.10396014,11.0469785 8.13982471,11.4117527 8.17699345,11.7758743 C8.21090177,12.106716 8.24872259,12.4362526 8.28197883,12.7664418 C8.3139309,13.0855376 8.34197048,13.4046335 8.37327047,13.7237293 C8.39674546,13.9625618 8.42282878,14.2020468 8.44760794,14.4408793 C8.4841246,14.7821618 8.52390167,15.1234442 8.55650582,15.4653792 C8.58650165,15.777297 8.58389332,15.7818649 8.87472239,15.8693063 C9.93696579,16.1884021 10.9998613,16.5061929 12.0627568,16.8233311 C12.1064463,16.836382 12.150788,16.8455177 12.1964338,16.8526957 C12.24534,16.8605263 12.2909859,16.8416024 12.3138088,16.7998393 C12.3692358,16.7006521 12.4200983,16.5975496 12.4690046,16.4950996 C13.0624002,15.2519961 13.9068478,14.2137927 15.0036516,13.3824469 C15.076685,13.3269803 15.1523266,13.2747765 15.2240557,13.2180048 C15.2507911,13.1971233 15.2749182,13.1710214 15.2938286,13.1429618 C15.304914,13.1259956 15.3140432,13.097936 15.3081745,13.0790122 C15.2905682,13.0248507 15.2697016,12.9713418 15.2429662,12.9217482 C14.7115184,11.9331383 14.1787665,10.9458336 13.6460146,9.95918144 C13.6186271,9.90893527 13.5879792,9.86064674 13.555375,9.81301075 C13.5286396,9.77451043 13.4895146,9.74710343 13.4412605,9.74710343 C13.3499688,9.74710343 13.2580251,9.74840853 13.1673856,9.75689165 C12.9163336,9.77973082 12.6665857,9.80648527 12.4161858,9.83193464 C11.9949401,9.87565533 11.5736944,9.91872348 11.1531008,9.96179163 C10.879878,9.98985119 10.6066552,10.0185633 10.3334323,10.0472754 C9.99239286,10.0838181 9.65135339,10.1216658 9.31031391,10.1562509 C9.00253068,10.1875732 8.69539953,10.2143276 8.3876163,10.2456499 C8.31979965,10.2521754 8.25198301,10.267184 8.18481845,10.2802349 C8.09809139,10.2972012 8.04005599,10.3330913 8.04853307,10.4427193 C8.0550539,10.5223301 8.06418307,10.601941 8.07266015,10.6822043 Z" id="Combined-Shape" transform="translate(20.000000, 20.000000) rotate(5.000000) translate(-20.000000, -20.000000) "></path>
                        </g>
                    </g>
                </g>
            </g>
        </g>
    </g>
</svg>