<?xml version="1.0" encoding="UTF-8"?>
<svg width="93px" height="54px" viewBox="0 0 93 54" version="1.1" xmlns="http://www.w3.org/2000/svg" xmlns:xlink="http://www.w3.org/1999/xlink">
    <!-- Generator: Sketch 46.2 (44496) - http://www.bohemiancoding.com/sketch -->
    <title>1 copy</title>
    <desc>Created with Sketch.</desc>
    <defs></defs>
    <g id="Page-1" stroke="none" stroke-width="1" fill="none" fill-rule="evenodd" opacity="0.0799999982">
        <g id="Select-Date" transform="translate(-947.000000, -815.000000)" fill="#5E5833">
            <g id="Date" transform="translate(947.000000, 0.000000)">
                <g id="Pattern" transform="translate(0.000000, 815.000000)">
                    <g id="Group-3">
                        <g id="1-copy">
                            <path d="M22.9680147,11.7643142 L41.3546846,30.1509842 L22.9680147,48.5376542 L4.5813447,30.1509842 L22.9680147,11.7643142 Z M22.9680147,13.515604 L6.34378613,30.1398326 L22.9680147,46.7640611 L39.5922432,30.1398326 L22.9680147,13.515604 Z" id="Combined-Shape"></path>
                            <path d="M3.55618313e-15,11.7816184 L18.4095789,30.1911973 L5.64175442e-15,48.6007763 L3.55271368e-15,46.8267593 L16.6442202,30.1825391 L3.66026653e-15,13.538319 L3.55271368e-15,11.7816184 Z" id="Combined-Shape"></path>
                            <path d="M27.9843054,48.6280697 L46.4380826,30.1742925 L28.0057121,11.7419221 L27.9843054,11.7633288 L27.9843054,13.5274392 L28.0173413,13.4944034 L44.6828897,30.1599518 L27.9843054,46.8585361 L27.9843054,48.6280697 Z" id="Combined-Shape-Copy-6" transform="translate(37.211194, 30.184996) scale(-1, 1) translate(-37.211194, -30.184996) "></path>
                            <path d="M41.8567379,6.81091877 L23.5286285,25.1390281 L5.20051913,6.81091877 L6.97411222,6.81091877 L23.5286285,23.365435 L40.0831448,6.81091877 L41.8567379,6.81091877 Z" id="Combined-Shape"></path>
                            <path d="M42.1038615,34.6737683 L23.5286285,53.2490013 L4.95339547,34.6737683 L6.75090247,34.6737683 L23.5286285,51.4514943 L40.3063545,34.6737683 L42.1038615,34.6737683 Z" id="Combined-Shape-Copy-5" transform="translate(23.528628, 43.961385) scale(1, -1) translate(-23.528628, -43.961385) "></path>
                            <path d="M18.100957,6.81091877 L-9.71445147e-17,24.9118758 L0,23.160586 L16.3496672,6.81091877 L18.100957,6.81091877 Z" id="Combined-Shape"></path>
                            <path d="M46.4380826,6.81091877 L28.482024,24.7669774 L28.482024,23.0156876 L44.6867928,6.81091877 L46.4380826,6.81091877 Z" id="Combined-Shape-Copy-7" transform="translate(37.460053, 15.788948) scale(-1, 1) translate(-37.460053, -15.788948) "></path>
                            <path d="M17.9560586,35.2929427 L2.60902411e-15,53.2490013 L4.4408921e-16,51.4977116 L16.2047688,35.2929427 L17.9560586,35.2929427 Z" id="Combined-Shape-Copy-9" transform="translate(8.978029, 44.270972) scale(1, -1) translate(-8.978029, -44.270972) "></path>
                            <path d="M46.4380826,35.4378411 L28.6269224,53.2490013 L28.6269224,51.4977116 L44.6867928,35.4378411 L46.4380826,35.4378411 Z" id="Combined-Shape-Copy-8" transform="translate(37.532502, 44.343421) scale(-1, -1) translate(-37.532502, -44.343421) "></path>
                            <path d="M5.20108036,6.81091877 L11.6405096,0.371489544 L18.0799388,6.81091877 L16.2824318,6.81091877 L11.6405096,2.16899654 L6.99858736,6.81091877 L5.20108036,6.81091877 Z" id="Combined-Shape"></path>
                            <path d="M28.7297089,6.81091877 L35.1691381,0.371489544 L41.6085673,6.81091877 L39.8110603,6.81091877 L35.1691381,2.16899654 L30.5272159,6.81091877 L28.7297089,6.81091877 Z" id="Combined-Shape-Copy-10"></path>
                            <path d="M69.4060972,11.7643142 L87.7927672,30.1509842 L69.4060972,48.5376542 L51.0194273,30.1509842 L69.4060972,11.7643142 Z M69.4060972,13.515604 L52.7818687,30.1398326 L69.4060972,46.7640611 L86.0303258,30.1398326 L69.4060972,13.515604 Z" id="Combined-Shape-Copy-21"></path>
                            <path d="M46.4380826,11.7816184 L64.8476615,30.1911973 L46.4380826,48.6007763 L46.4380826,46.8267593 L63.0823027,30.1825391 L46.4380826,13.538319 L46.4380826,11.7816184 Z" id="Combined-Shape-Copy-20"></path>
                            <path d="M74.422388,48.6280697 L92.8761651,30.1742925 L74.4437947,11.7419221 L74.422388,11.7633288 L74.422388,13.5274392 L74.4554238,13.4944034 L91.1209722,30.1599518 L74.422388,46.8585361 L74.422388,48.6280697 Z" id="Combined-Shape-Copy-19" transform="translate(83.649277, 30.184996) scale(-1, 1) translate(-83.649277, -30.184996) "></path>
                            <path d="M88.2948204,6.81091877 L69.9667111,25.1390281 L51.6386017,6.81091877 L53.4121948,6.81091877 L69.9667111,23.365435 L86.5212273,6.81091877 L88.2948204,6.81091877 Z" id="Combined-Shape-Copy-18"></path>
                            <path d="M88.5419441,34.6737683 L69.9667111,53.2490013 L51.391478,34.6737683 L53.188985,34.6737683 L69.9667111,51.4514943 L86.7444371,34.6737683 L88.5419441,34.6737683 Z" id="Combined-Shape-Copy-17" transform="translate(69.966711, 43.961385) scale(1, -1) translate(-69.966711, -43.961385) "></path>
                            <path d="M64.5390396,6.81091877 L46.4380826,24.9118758 L46.4380826,23.160586 L62.7877498,6.81091877 L64.5390396,6.81091877 Z" id="Combined-Shape-Copy-16"></path>
                            <path d="M92.8761651,6.81091877 L74.9201065,24.7669774 L74.9201065,23.0156876 L91.1248753,6.81091877 L92.8761651,6.81091877 Z" id="Combined-Shape-Copy-15" transform="translate(83.898136, 15.788948) scale(-1, 1) translate(-83.898136, -15.788948) "></path>
                            <path d="M64.3941411,35.2929427 L46.4380826,53.2490013 L46.4380826,51.4977116 L62.6428514,35.2929427 L64.3941411,35.2929427 Z" id="Combined-Shape-Copy-14" transform="translate(55.416112, 44.270972) scale(1, -1) translate(-55.416112, -44.270972) "></path>
                            <path d="M92.8761651,35.4378411 L75.0650049,53.2490013 L75.0650049,51.4977116 L91.1248753,35.4378411 L92.8761651,35.4378411 Z" id="Combined-Shape-Copy-13" transform="translate(83.970585, 44.343421) scale(-1, -1) translate(-83.970585, -44.343421) "></path>
                            <path d="M51.6391629,6.81091877 L58.0785922,0.371489544 L64.5180214,6.81091877 L62.7205144,6.81091877 L58.0785922,2.16899654 L53.4366699,6.81091877 L51.6391629,6.81091877 Z" id="Combined-Shape-Copy-12"></path>
                            <path d="M75.1677914,6.81091877 L81.6072206,0.371489544 L88.0466499,6.81091877 L86.2491429,6.81091877 L81.6072206,2.16899654 L76.9652984,6.81091877 L75.1677914,6.81091877 Z" id="Combined-Shape-Copy-11"></path>
                        </g>
                    </g>
                </g>
            </g>
        </g>
    </g>
</svg>