<?xml version="1.0" encoding="UTF-8"?>
<svg width="32px" height="15px" viewBox="0 0 32 15" version="1.1" xmlns="http://www.w3.org/2000/svg" xmlns:xlink="http://www.w3.org/1999/xlink">
    <!-- Generator: Sketch 42 (36781) - http://www.bohemiancoding.com/sketch -->
    <title>Group</title>
    <desc>Created with Sketch.</desc>
    <defs></defs>
    <g id="Page-1" stroke="none" stroke-width="1" fill="none" fill-rule="evenodd">
        <g id="Choose-a-Date" transform="translate(-550.000000, -612.000000)" fill="#5CA04A">
            <g transform="translate(460.000000, 145.000000)" id="calendar">
                <g transform="translate(0.000000, 86.000000)">
                    <g id="Seats-Available" transform="translate(90.000000, 379.000000)">
                        <g id="Group" transform="translate(0.000000, 1.799988)">
                            <path style="fill:#243958;" d="M3.03992666,7.20001221 L7.00922203,7.20001221 C7.55641359,7.20001221 8,7.64387703 8,8.20001221 L8,9.20001221 L3.15000126,9.20001221 L2.03097451,14.4646192 L-1.74527059e-13,14.0329222 L1.15992892,8.57588569 C1.13511394,8.50834324 1.11703231,8.43708185 1.10658634,8.36275491 L0.143387944,1.50924219 C0.0641969693,0.945769125 0.456324289,0.424851757 1.02807041,0.34449808 C1.59585802,0.264700736 2.11984569,0.653295973 2.19952876,1.22027044 L3.03992666,7.20001221 Z M6,9.20001221 L8,9.20001221 L8,14.2000122 L6,14.2000122 L6,9.20001221 Z" id="Combined-Shape"></path>
                            <path style="fill:#243958;" d="M27.0399267,7.20001221 L31.009222,7.20001221 C31.5564136,7.20001221 32,7.64387703 32,8.20001221 L32,9.20001221 L27.1500013,9.20001221 L26.0309745,14.4646192 L24,14.0329222 L25.1599289,8.57588569 C25.1351139,8.50834324 25.1170323,8.43708185 25.1065863,8.36275491 L24.1433879,1.50924219 C24.064197,0.945769125 24.4563243,0.424851757 25.0280704,0.34449808 C25.595858,0.264700736 26.1198457,0.653295973 26.1995288,1.22027044 L27.0399267,7.20001221 Z M30,9.20001221 L32,9.20001221 L32,14.2000122 L30,14.2000122 L30,9.20001221 Z" id="Combined-Shape-Copy" transform="translate(28.000000, 7.200012) scale(-1, 1) translate(-28.000000, -7.200012) "></path>
                            <path style="fill:#243958;" d="M18.5000748,11.2031263 L13.5000748,11.2031263 C12.1210748,11.2031263 11.0000748,12.3231263 11.0000748,13.7031263 C11.0000748,13.9831263 11.2240748,14.2031263 11.5000748,14.2031263 L20.5000748,14.2031263 L20.5200748,14.2031263 C20.7960748,14.2031263 21.0200748,13.9831263 21.0200748,13.7031263 C21.0200748,13.6531263 21.0120748,13.5931263 20.9950748,13.5431263 C20.9140748,12.2431263 19.8260748,11.2031263 18.5000748,11.2031263" id="Fill-1173"></path>
                            <path style="fill:#243958;" d="M23.5000748,2.20312627 L8.5000748,2.20312627 C8.2240748,2.20312627 8.0000748,2.42312627 8.0000748,2.70312627 L8.0000748,4.70312627 C8.0000748,4.98312627 8.2240748,5.20312627 8.5000748,5.20312627 L23.5000748,5.20312627 C23.7760748,5.20312627 24.0000748,4.98312627 24.0000748,4.70312627 L24.0000748,2.70312627 C24.0000748,2.42312627 23.7760748,2.20312627 23.5000748,2.20312627" id="Fill-1174"></path>
                            <path style="fill:#243958;" d="M17.5700748,4.20312627 C17.3010748,4.17312627 17.0440748,4.36312627 17.0050748,4.63312627 L16.9950748,4.70312627 L15.0050748,4.70312627 L14.9950748,4.63312627 C14.9560748,4.36312627 14.6980748,4.17312627 14.4300748,4.20312627 C14.1560748,4.24312627 13.9660748,4.50312627 14.0050748,4.77312627 L15.0050748,11.7731263 C15.0400748,12.0231263 15.2510748,12.2031263 15.5000748,12.2031263 L16.5000748,12.2031263 C16.7490748,12.2031263 16.9600748,12.0231263 16.9950748,11.7731263 L17.9950748,4.77312627 C18.0340748,4.50312627 17.8440748,4.24312627 17.5700748,4.20312627" id="Fill-1179"></path>
                        </g>
                    </g>
                </g>
            </g>
        </g>
    </g>
</svg>