<?xml version="1.0" encoding="UTF-8"?>
<svg width="24px" height="21px" viewBox="0 0 24 21" version="1.1" xmlns="http://www.w3.org/2000/svg" xmlns:xlink="http://www.w3.org/1999/xlink">
    <!-- Generator: Sketch 46.2 (44496) - http://www.bohemiancoding.com/sketch -->
    <title>icon</title>
    <desc>Created with Sketch.</desc>
    <defs></defs>
    <g id="Page-1" stroke="none" stroke-width="1" fill="none" fill-rule="evenodd">
        <g id="Sign-Up" transform="translate(-998.000000, -277.000000)" fill="#FFFFFF">
            <g transform="translate(947.000000, 0.000000)" id="Content">
                <g transform="translate(33.000000, 59.000000)">
                    <g id="Sign-Up" transform="translate(0.000000, 201.000000)">
                        <g id="1">
                            <g id="icon" transform="translate(18.000000, 17.000000)">
                                <path d="M16,6.71148481 C13.8622381,6.82627658 12.0032956,7.49234114 10.4940691,8.99715701 C8.96921525,10.5174902 8.27313816,12.3804745 8.46340276,14.6899218 C7.62782773,14.5835693 6.86676931,14.4665089 6.1013847,14.4002654 C5.83704492,14.3773978 5.52335112,14.4098843 5.29944809,14.5397397 C4.55622423,14.970776 3.84372523,15.4574387 2.99923292,16 C3.15418158,15.2796702 3.25447884,14.6489053 3.43202971,14.0421876 C3.56261038,13.5962692 3.50213184,13.348083 3.10244374,13.0577007 C0.536211279,11.195533 -0.545515829,8.40867899 0.264013705,5.53951972 C1.01297641,2.88524341 2.85223034,1.27552691 5.35136252,0.436412616 C8.76244045,-0.708782841 12.595897,0.459370972 14.6700902,3.24286744 C15.4192294,4.24831638 15.8786015,5.37681485 16,6.71148481 L16,6.71148481 Z M6.16115503,5.68249278 C6.18364916,5.08294053 5.67818693,4.54279403 5.07780553,4.52475458 C4.46310051,4.50619677 3.95753741,4.98901102 3.93958245,5.61157911 C3.92142576,6.24254487 4.39097808,6.74816761 5.0101214,6.76434091 C5.62391858,6.78030685 6.13845916,6.29687055 6.16115503,5.68249278 L6.16115503,5.68249278 Z M11.0514825,4.31468891 C10.3927781,4.32715492 9.83617626,4.90376463 9.84786402,5.56174339 C9.85988256,6.24374756 10.4058993,6.77729286 11.0832379,6.76890664 C11.7623407,6.76052041 12.2773738,6.22130874 12.2709786,5.52491199 C12.2653553,4.84132124 11.7217643,4.30210957 11.0514825,4.31468891 L11.0514825,4.31468891 Z" id="Shape"></path>
                                <path d="M21.7284786,21 C21.0378817,20.6874578 20.4043916,20.218553 19.7299179,20.1469631 C19.0580564,20.0756478 18.3517866,20.4695755 17.6488495,20.5426301 C15.5077018,20.765273 13.5894871,20.1587727 12.0077886,18.6721376 C8.99958906,15.8442443 9.42942192,11.5082023 12.9097891,9.19077627 C16.0030184,7.13114717 20.5394125,7.81775123 22.7202828,10.6755804 C24.6234552,13.1693264 24.3998016,16.4796735 22.0764343,18.5746398 C21.4041223,19.180957 21.1621837,19.6798893 21.5935478,20.4791879 C21.6731732,20.626762 21.6822707,20.8136099 21.7284786,21 L21.7284786,21 Z M14.0356369,13.6047684 C14.5658998,13.6053205 15.0025167,13.1835349 15.0226148,12.6512237 C15.0437992,12.0876651 14.5978395,11.6149781 14.0425897,11.6126594 C13.4928805,11.6101198 13.0323632,12.0894317 13.0514835,12.6445988 C13.0695175,13.1750329 13.5091762,13.6041059 14.0356369,13.6047684 L14.0356369,13.6047684 Z M19.0940312,11.6144924 C18.5833952,11.6108761 18.1495272,12.0357318 18.1287179,12.5600894 C18.1066148,13.1208288 18.5354153,13.5812991 19.0814162,13.5827237 C19.6095191,13.584477 20.0267828,13.1785793 20.0459748,12.6444688 C20.0664606,12.0824144 19.6374445,11.6183278 19.0940312,11.6144924 L19.0940312,11.6144924 Z" id="Shape"></path>
                            </g>
                        </g>
                    </g>
                </g>
            </g>
        </g>
    </g>
</svg>