<?xml version="1.0" encoding="UTF-8"?>
<svg width="23px" height="20px" viewBox="0 0 23 20" version="1.1" xmlns="http://www.w3.org/2000/svg" xmlns:xlink="http://www.w3.org/1999/xlink">
    <!-- Generator: Sketch 46.2 (44496) - http://www.bohemiancoding.com/sketch -->
    <title>Shape</title>
    <desc>Created with Sketch.</desc>
    <defs></defs>
    <g id="Page-1" stroke="none" stroke-width="1" fill="none" fill-rule="evenodd">
        <g id="Payment" transform="translate(-1000.000000, -401.000000)" fill="#243958">
            <g transform="translate(947.000000, 0.000000)" id="Content">
                <g transform="translate(33.000000, 122.000000)">
                    <g id="Payment" transform="translate(0.000000, 188.000000)">
                        <g id="2" transform="translate(0.000000, 72.000000)">
                            <path d="M41.1572743,23.9557374 C41.0430342,24.0242815 31.6570641,29.6220484 28.5497322,31.2168408 C28.0013796,31.4978716 27.7272032,31.3813466 27.6495199,31.3813466 C27.1308697,31.3813466 24.8255036,26.4393181 25.4378308,26.0623256 C26.0501579,25.6853331 27.6038239,27.8993071 28.4971818,27.992984 C29.2374579,28.0706673 37.3782104,24.0608383 40.1748091,22.6716782 C38.1344802,20.4439954 34.8717817,19 31.1955339,19 C25.0128574,19 20,23.0783731 20,28.1095089 C20,30.7575954 21.3891601,33.1406448 23.6077037,34.8062661 C23.9092977,35.1649801 24.1537716,35.5191246 24.1446324,35.7133328 C24.1217843,36.2068502 23.3632298,38.3340017 23.7447919,38.4208242 C24.6861306,38.6333108 26.3334735,37.008816 26.9458006,37.0567969 C27.2999451,37.0842145 28.1110501,37.0408033 28.7302317,36.9996768 C29.5230583,37.1459042 30.3478721,37.2235875 31.1955339,37.2235875 C37.3782104,37.2235875 42.3910679,33.1452144 42.3910679,28.1140785 C42.3910679,26.6129631 41.9455313,25.2009549 41.1572743,23.9557374 Z" id="Shape"></path>
                        </g>
                    </g>
                </g>
            </g>
        </g>
    </g>
</svg>