<?xml version="1.0" encoding="UTF-8"?>
<svg width="52px" height="52px" viewBox="0 0 52 52" version="1.1" xmlns="http://www.w3.org/2000/svg" xmlns:xlink="http://www.w3.org/1999/xlink">
    <!-- Generator: Sketch 46.2 (44496) - http://www.bohemiancoding.com/sketch -->
    <title>Date Selected Copy</title>
    <desc>Created with Sketch.</desc>
    <defs>
        <circle id="path-1" cx="26" cy="26" r="26"></circle>
    </defs>
    <g id="Page-1" stroke="none" stroke-width="1" fill="none" fill-rule="evenodd">
        <g id="Select-Date" transform="translate(-1214.000000, -476.000000)">
            <g id="Date" transform="translate(947.000000, 0.000000)">
                <g id="Date-Picker" transform="translate(33.000000, 237.000000)">
                    <g id="Calendar" transform="translate(5.000000, 44.000000)">
                        <g id="Date-Selected-Copy" transform="translate(229.000000, 195.000000)">
                            <mask id="mask-2" fill="white">
                                <use xlink:href="#path-1"></use>
                            </mask>
                            <circle stroke="#243958" cx="26" cy="26" r="25.5"></circle>
                            <g id="Page-1" mask="url(#mask-2)" stroke="#243958">
                                <g transform="translate(-9.750000, -7.583333)">
                                    <path d="M43.5437813,0.967345027 L38.6848566,22.7058437" id="Stroke-4"></path>
                                    <path d="M57.2724925,7.296575 L43.620221,24.8972995" id="Stroke-9"></path>
                                    <path d="M66.9997407,18.8686386 L47.1529168,28.9816601" id="Stroke-11"></path>
                                    <path d="M28.4138816,0.967345027 L33.3972149,22.7058437" id="Stroke-15"></path>
                                    <path d="M14.6851704,7.296575 L28.3372497,24.8972995" id="Stroke-20"></path>
                                    <path d="M4.95782608,18.8686386 L24.80465,28.9816601" id="Stroke-22"></path>
                                    <path d="M0,34.6666667 L23.5477177,34.6666667" id="Stroke-26"></path>
                                    <path d="M48.5854085,34.6666667 L72.1331262,34.6666667" id="Stroke-28"></path>
                                </g>
                            </g>
                            <g id="Page-1-Copy" mask="url(#mask-2)" stroke="#243958">
                                <g transform="translate(26.541667, 43.875000) scale(1, -1) translate(-26.541667, -43.875000) translate(-9.750000, 26.000000)">
                                    <path d="M43.5437813,0.967345027 L38.6848566,22.7058437" id="Stroke-4"></path>
                                    <path d="M57.2724925,7.296575 L43.620221,24.8972995" id="Stroke-9"></path>
                                    <path d="M66.9997407,18.8686386 L47.1529168,28.9816601" id="Stroke-11"></path>
                                    <path d="M28.4138816,0.967345027 L33.3972149,22.7058437" id="Stroke-15"></path>
                                    <path d="M14.6851704,7.296575 L28.3372497,24.8972995" id="Stroke-20"></path>
                                    <path d="M4.95782608,18.8686386 L24.80465,28.9816601" id="Stroke-22"></path>
                                    <path d="M0,34.6666667 L23.5477177,34.6666667" id="Stroke-26"></path>
                                    <path d="M48.5854085,34.6666667 L72.1331262,34.6666667" id="Stroke-28"></path>
                                </g>
                            </g>
                            <circle id="Oval-4" fill="#243958" mask="url(#mask-2)" cx="26" cy="26" r="22"></circle>
                        </g>
                    </g>
                </g>
            </g>
        </g>
    </g>
</svg>