<?xml version="1.0" encoding="UTF-8"?>
<svg width="300px" height="9px" viewBox="0 0 300 9" version="1.1" xmlns="http://www.w3.org/2000/svg" xmlns:xlink="http://www.w3.org/1999/xlink">
    <!-- Generator: Sketch 46.2 (44496) - http://www.bohemiancoding.com/sketch -->
    <title>Divider 1</title>
    <desc>Created with Sketch.</desc>
    <defs>
        <circle id="path-1" cx="2.5" cy="4.5" r="2.5"></circle>
        <circle id="path-2" cx="297.5" cy="4.5" r="2.5"></circle>
        <rect id="path-3" x="74.6568542" y="1.65685425" width="6" height="6"></rect>
        <rect id="path-4" x="81.6568542" y="1.65685425" width="6" height="6"></rect>
        <rect id="path-5" x="88.6568542" y="1.65685425" width="6" height="6"></rect>
        <rect id="path-6" x="95.6568542" y="1.65685425" width="6" height="6"></rect>
        <polygon id="path-7" points="102 4.5 106 0 136 0 140 4.5 136 9 106 9"></polygon>
        <rect id="path-8" x="139.656854" y="1.65685425" width="6" height="6"></rect>
        <rect id="path-9" x="146.656854" y="1.65685425" width="6" height="6"></rect>
        <rect id="path-10" x="153.899495" y="1.24264069" width="6" height="6"></rect>
        <polygon id="path-11" points="160.656854 4.5 164.656854 0 194.656854 0 198.656854 4.5 194.656854 9 164.656854 9"></polygon>
        <rect id="path-12" x="197.899495" y="1.24264069" width="6" height="6"></rect>
        <rect id="path-13" x="204.899495" y="1.24264069" width="6" height="6"></rect>
        <rect id="path-14" x="211.899495" y="1.24264069" width="6" height="6"></rect>
        <rect id="path-15" x="218.899495" y="1.24264069" width="6" height="6"></rect>
    </defs>
    <g id="Page-1" stroke="none" stroke-width="1" fill="none" fill-rule="evenodd">
        <g id="Select-Date" transform="translate(-30.000000, -116.000000)">
            <g id="Date-Picker" transform="translate(30.000000, 116.000000)">
                <g id="Divider-1">
                    <rect id="Rectangle-2-Copy" fill="#C49650" x="0" y="4" width="300" height="1"></rect>
                    <g id="Oval">
                        <use fill="#FCF9F6" fill-rule="evenodd" xlink:href="#path-1"></use>
                        <circle stroke="#C49650" stroke-width="1" cx="2.5" cy="4.5" r="2"></circle>
                    </g>
                    <g id="Oval-Copy">
                        <use fill="#FCF9F6" fill-rule="evenodd" xlink:href="#path-2"></use>
                        <circle stroke="#C49650" stroke-width="1" cx="297.5" cy="4.5" r="2"></circle>
                    </g>
                    <g id="Rectangle-3-Copy-10" transform="translate(77.656854, 4.656854) rotate(-45.000000) translate(-77.656854, -4.656854) ">
                        <use fill="#FCF9F6" fill-rule="evenodd" xlink:href="#path-3"></use>
                        <rect stroke="#C49650" stroke-width="1" x="75.1568542" y="2.15685425" width="5" height="5"></rect>
                    </g>
                    <g id="Rectangle-3-Copy-9" transform="translate(84.656854, 4.656854) rotate(-45.000000) translate(-84.656854, -4.656854) ">
                        <use fill="#FCF9F6" fill-rule="evenodd" xlink:href="#path-4"></use>
                        <rect stroke="#C49650" stroke-width="1" x="82.1568542" y="2.15685425" width="5" height="5"></rect>
                    </g>
                    <g id="Rectangle-3" transform="translate(91.656854, 4.656854) rotate(-45.000000) translate(-91.656854, -4.656854) ">
                        <use fill="#FCF9F6" fill-rule="evenodd" xlink:href="#path-5"></use>
                        <rect stroke="#C49650" stroke-width="1" x="89.1568542" y="2.15685425" width="5" height="5"></rect>
                    </g>
                    <g id="Rectangle-3-Copy" transform="translate(98.656854, 4.656854) rotate(-45.000000) translate(-98.656854, -4.656854) ">
                        <use fill="#FCF9F6" fill-rule="evenodd" xlink:href="#path-6"></use>
                        <rect stroke="#C49650" stroke-width="1" x="96.1568542" y="2.15685425" width="5" height="5"></rect>
                    </g>
                    <g id="Rectangle-4">
                        <use fill="#FCF9F6" fill-rule="evenodd" xlink:href="#path-7"></use>
                        <path stroke="#C49650" stroke-width="1" d="M102.668977,4.5 L106.224533,8.5 L135.775467,8.5 L139.331023,4.5 L135.775467,0.5 L106.224533,0.5 L102.668977,4.5 Z"></path>
                    </g>
                    <g id="Rectangle-3-Copy-3" transform="translate(142.656854, 4.656854) rotate(-45.000000) translate(-142.656854, -4.656854) ">
                        <use fill="#FCF9F6" fill-rule="evenodd" xlink:href="#path-8"></use>
                        <rect stroke="#C49650" stroke-width="1" x="140.156854" y="2.15685425" width="5" height="5"></rect>
                    </g>
                    <g id="Rectangle-3-Copy-2" transform="translate(149.656854, 4.656854) rotate(-45.000000) translate(-149.656854, -4.656854) ">
                        <use fill="#FCF9F6" fill-rule="evenodd" xlink:href="#path-9"></use>
                        <rect stroke="#C49650" stroke-width="1" x="147.156854" y="2.15685425" width="5" height="5"></rect>
                    </g>
                    <g id="Rectangle-3-Copy-6" transform="translate(156.899495, 4.242641) rotate(-45.000000) translate(-156.899495, -4.242641) ">
                        <use fill="#FCF9F6" fill-rule="evenodd" xlink:href="#path-10"></use>
                        <rect stroke="#C49650" stroke-width="1" x="154.399495" y="1.74264069" width="5" height="5"></rect>
                    </g>
                    <g id="Rectangle-4-Copy">
                        <use fill="#FCF9F6" fill-rule="evenodd" xlink:href="#path-11"></use>
                        <path stroke="#C49650" stroke-width="1" d="M161.325832,4.5 L164.881387,8.5 L194.432321,8.5 L197.987877,4.5 L194.432321,0.5 L164.881387,0.5 L161.325832,4.5 Z"></path>
                    </g>
                    <g id="Rectangle-3-Copy-5" transform="translate(200.899495, 4.242641) rotate(-45.000000) translate(-200.899495, -4.242641) ">
                        <use fill="#FCF9F6" fill-rule="evenodd" xlink:href="#path-12"></use>
                        <rect stroke="#C49650" stroke-width="1" x="198.399495" y="1.74264069" width="5" height="5"></rect>
                    </g>
                    <g id="Rectangle-3-Copy-4" transform="translate(207.899495, 4.242641) rotate(-45.000000) translate(-207.899495, -4.242641) ">
                        <use fill="#FCF9F6" fill-rule="evenodd" xlink:href="#path-13"></use>
                        <rect stroke="#C49650" stroke-width="1" x="205.399495" y="1.74264069" width="5" height="5"></rect>
                    </g>
                    <g id="Rectangle-3-Copy-8" transform="translate(214.899495, 4.242641) rotate(-45.000000) translate(-214.899495, -4.242641) ">
                        <use fill="#FCF9F6" fill-rule="evenodd" xlink:href="#path-14"></use>
                        <rect stroke="#C49650" stroke-width="1" x="212.399495" y="1.74264069" width="5" height="5"></rect>
                    </g>
                    <g id="Rectangle-3-Copy-7" transform="translate(221.899495, 4.242641) rotate(-45.000000) translate(-221.899495, -4.242641) ">
                        <use fill="#FCF9F6" fill-rule="evenodd" xlink:href="#path-15"></use>
                        <rect stroke="#C49650" stroke-width="1" x="219.399495" y="1.74264069" width="5" height="5"></rect>
                    </g>
                </g>
            </g>
        </g>
    </g>
</svg>