<?xml version="1.0" encoding="UTF-8"?>
<svg width="398px" height="9px" viewBox="0 0 398 9" version="1.1" xmlns="http://www.w3.org/2000/svg" xmlns:xlink="http://www.w3.org/1999/xlink">
    <!-- Generator: Sketch 46.2 (44496) - http://www.bohemiancoding.com/sketch -->
    <title>Divider 1</title>
    <desc>Created with Sketch.</desc>
    <defs>
        <circle id="path-1" cx="2.5" cy="4.5" r="2.5"></circle>
        <circle id="path-2" cx="395.5" cy="4.5" r="2.5"></circle>
        <rect id="path-3" x="123.656854" y="1.65685425" width="6" height="6"></rect>
        <rect id="path-4" x="130.656854" y="1.65685425" width="6" height="6"></rect>
        <rect id="path-5" x="137.656854" y="1.65685425" width="6" height="6"></rect>
        <rect id="path-6" x="144.656854" y="1.65685425" width="6" height="6"></rect>
        <polygon id="path-7" points="151 4.5 155 0 185 0 189 4.5 185 9 155 9"></polygon>
        <rect id="path-8" x="188.656854" y="1.65685425" width="6" height="6"></rect>
        <rect id="path-9" x="195.656854" y="1.65685425" width="6" height="6"></rect>
        <rect id="path-10" x="202.899495" y="1.24264069" width="6" height="6"></rect>
        <polygon id="path-11" points="209.656854 4.5 213.656854 0 243.656854 0 247.656854 4.5 243.656854 9 213.656854 9"></polygon>
        <rect id="path-12" x="246.899495" y="1.24264069" width="6" height="6"></rect>
        <rect id="path-13" x="253.899495" y="1.24264069" width="6" height="6"></rect>
        <rect id="path-14" x="260.899495" y="1.24264069" width="6" height="6"></rect>
        <rect id="path-15" x="267.899495" y="1.24264069" width="6" height="6"></rect>
    </defs>
    <g id="Page-1" stroke="none" stroke-width="1" fill="none" fill-rule="evenodd">
        <g id="Logged-In" transform="translate(-980.000000, -211.000000)">
            <g transform="translate(947.000000, 0.000000)" id="Content">
                <g transform="translate(33.000000, 59.000000)">
                    <g id="Divider-1" transform="translate(0.000000, 152.000000)">
                        <rect id="Rectangle-2-Copy" fill="#C49650" x="0" y="4" width="398" height="1"></rect>
                        <g id="Oval">
                            <use fill="#FCF9F6" fill-rule="evenodd" xlink:href="#path-1"></use>
                            <circle stroke="#C49650" stroke-width="1" cx="2.5" cy="4.5" r="2"></circle>
                        </g>
                        <g id="Oval-Copy">
                            <use fill="#FCF9F6" fill-rule="evenodd" xlink:href="#path-2"></use>
                            <circle stroke="#C49650" stroke-width="1" cx="395.5" cy="4.5" r="2"></circle>
                        </g>
                        <g id="Rectangle-3-Copy-10" transform="translate(126.656854, 4.656854) rotate(-45.000000) translate(-126.656854, -4.656854) ">
                            <use fill="#FCF9F6" fill-rule="evenodd" xlink:href="#path-3"></use>
                            <rect stroke="#C49650" stroke-width="1" x="124.156854" y="2.15685425" width="5" height="5"></rect>
                        </g>
                        <g id="Rectangle-3-Copy-9" transform="translate(133.656854, 4.656854) rotate(-45.000000) translate(-133.656854, -4.656854) ">
                            <use fill="#FCF9F6" fill-rule="evenodd" xlink:href="#path-4"></use>
                            <rect stroke="#C49650" stroke-width="1" x="131.156854" y="2.15685425" width="5" height="5"></rect>
                        </g>
                        <g id="Rectangle-3" transform="translate(140.656854, 4.656854) rotate(-45.000000) translate(-140.656854, -4.656854) ">
                            <use fill="#FCF9F6" fill-rule="evenodd" xlink:href="#path-5"></use>
                            <rect stroke="#C49650" stroke-width="1" x="138.156854" y="2.15685425" width="5" height="5"></rect>
                        </g>
                        <g id="Rectangle-3-Copy" transform="translate(147.656854, 4.656854) rotate(-45.000000) translate(-147.656854, -4.656854) ">
                            <use fill="#FCF9F6" fill-rule="evenodd" xlink:href="#path-6"></use>
                            <rect stroke="#C49650" stroke-width="1" x="145.156854" y="2.15685425" width="5" height="5"></rect>
                        </g>
                        <g id="Rectangle-4">
                            <use fill="#FCF9F6" fill-rule="evenodd" xlink:href="#path-7"></use>
                            <path stroke="#C49650" stroke-width="1" d="M151.668977,4.5 L155.224533,8.5 L184.775467,8.5 L188.331023,4.5 L184.775467,0.5 L155.224533,0.5 L151.668977,4.5 Z"></path>
                        </g>
                        <g id="Rectangle-3-Copy-3" transform="translate(191.656854, 4.656854) rotate(-45.000000) translate(-191.656854, -4.656854) ">
                            <use fill="#FCF9F6" fill-rule="evenodd" xlink:href="#path-8"></use>
                            <rect stroke="#C49650" stroke-width="1" x="189.156854" y="2.15685425" width="5" height="5"></rect>
                        </g>
                        <g id="Rectangle-3-Copy-2" transform="translate(198.656854, 4.656854) rotate(-45.000000) translate(-198.656854, -4.656854) ">
                            <use fill="#FCF9F6" fill-rule="evenodd" xlink:href="#path-9"></use>
                            <rect stroke="#C49650" stroke-width="1" x="196.156854" y="2.15685425" width="5" height="5"></rect>
                        </g>
                        <g id="Rectangle-3-Copy-6" transform="translate(205.899495, 4.242641) rotate(-45.000000) translate(-205.899495, -4.242641) ">
                            <use fill="#FCF9F6" fill-rule="evenodd" xlink:href="#path-10"></use>
                            <rect stroke="#C49650" stroke-width="1" x="203.399495" y="1.74264069" width="5" height="5"></rect>
                        </g>
                        <g id="Rectangle-4-Copy">
                            <use fill="#FCF9F6" fill-rule="evenodd" xlink:href="#path-11"></use>
                            <path stroke="#C49650" stroke-width="1" d="M210.325832,4.5 L213.881387,8.5 L243.432321,8.5 L246.987877,4.5 L243.432321,0.5 L213.881387,0.5 L210.325832,4.5 Z"></path>
                        </g>
                        <g id="Rectangle-3-Copy-5" transform="translate(249.899495, 4.242641) rotate(-45.000000) translate(-249.899495, -4.242641) ">
                            <use fill="#FCF9F6" fill-rule="evenodd" xlink:href="#path-12"></use>
                            <rect stroke="#C49650" stroke-width="1" x="247.399495" y="1.74264069" width="5" height="5"></rect>
                        </g>
                        <g id="Rectangle-3-Copy-4" transform="translate(256.899495, 4.242641) rotate(-45.000000) translate(-256.899495, -4.242641) ">
                            <use fill="#FCF9F6" fill-rule="evenodd" xlink:href="#path-13"></use>
                            <rect stroke="#C49650" stroke-width="1" x="254.399495" y="1.74264069" width="5" height="5"></rect>
                        </g>
                        <g id="Rectangle-3-Copy-8" transform="translate(263.899495, 4.242641) rotate(-45.000000) translate(-263.899495, -4.242641) ">
                            <use fill="#FCF9F6" fill-rule="evenodd" xlink:href="#path-14"></use>
                            <rect stroke="#C49650" stroke-width="1" x="261.399495" y="1.74264069" width="5" height="5"></rect>
                        </g>
                        <g id="Rectangle-3-Copy-7" transform="translate(270.899495, 4.242641) rotate(-45.000000) translate(-270.899495, -4.242641) ">
                            <use fill="#FCF9F6" fill-rule="evenodd" xlink:href="#path-15"></use>
                            <rect stroke="#C49650" stroke-width="1" x="268.399495" y="1.74264069" width="5" height="5"></rect>
                        </g>
                    </g>
                </g>
            </g>
        </g>
    </g>
</svg>