<?xml version="1.0" encoding="UTF-8"?>
<svg width="300px" height="9px" viewBox="0 0 300 9" version="1.1" xmlns="http://www.w3.org/2000/svg" xmlns:xlink="http://www.w3.org/1999/xlink">
    <!-- Generator: Sketch 46.2 (44496) - http://www.bohemiancoding.com/sketch -->
    <title>Divider 1</title>
    <desc>Created with Sketch.</desc>
    <defs>
        <rect id="path-1" x="94.2426407" y="1.24264069" width="6" height="6"></rect>
        <rect id="path-2" x="200.242641" y="1.24264069" width="6" height="6"></rect>
        <circle id="path-3" cx="2.5" cy="4.5" r="2.5"></circle>
        <circle id="path-4" cx="297.5" cy="4.5" r="2.5"></circle>
    </defs>
    <g id="Page-1" stroke="none" stroke-width="1" fill="none" fill-rule="evenodd">
        <g id="Select-Time" transform="translate(-30.000000, -118.000000)">
            <g id="Lunch" transform="translate(30.000000, 116.000000)">
                <g id="Divider-1" transform="translate(0.000000, 2.000000)">
                    <path d="M100,4 L0,4 L0,5 L100,5 L100,4 Z M200,4 L300,4 L300,5 L200,5 L200,4 Z" id="Combined-Shape" fill="#C49650"></path>
                    <g id="Rectangle-3" transform="translate(97.242641, 4.242641) rotate(-45.000000) translate(-97.242641, -4.242641) ">
                        <use fill="#FCF9F6" fill-rule="evenodd" xlink:href="#path-1"></use>
                        <rect stroke="#C49650" stroke-width="1" x="94.7426407" y="1.74264069" width="5" height="5"></rect>
                    </g>
                    <g id="Rectangle-3-Copy" transform="translate(203.242641, 4.242641) rotate(-45.000000) translate(-203.242641, -4.242641) ">
                        <use fill="#FCF9F6" fill-rule="evenodd" xlink:href="#path-2"></use>
                        <rect stroke="#C49650" stroke-width="1" x="200.742641" y="1.74264069" width="5" height="5"></rect>
                    </g>
                    <g id="Oval">
                        <use fill="#FCF9F6" fill-rule="evenodd" xlink:href="#path-3"></use>
                        <circle stroke="#C49650" stroke-width="1" cx="2.5" cy="4.5" r="2"></circle>
                    </g>
                    <g id="Oval-Copy">
                        <use fill="#FCF9F6" fill-rule="evenodd" xlink:href="#path-4"></use>
                        <circle stroke="#C49650" stroke-width="1" cx="297.5" cy="4.5" r="2"></circle>
                    </g>
                </g>
            </g>
        </g>
    </g>
</svg>