<?xml version="1.0" encoding="UTF-8"?>
<svg width="11px" height="11px" viewBox="0 0 11 11" version="1.1" xmlns="http://www.w3.org/2000/svg" xmlns:xlink="http://www.w3.org/1999/xlink">
    <!-- Generator: Sketch 46.2 (44496) - http://www.bohemiancoding.com/sketch -->
    <title>Dot</title>
    <desc>Created with Sketch.</desc>
    <defs></defs>
    <g id="Page-1" stroke="none" stroke-width="1" fill="none" fill-rule="evenodd">
        <g id="No-Availability" transform="translate(-1168.000000, -417.000000)">
            <g id="Waiting-List" transform="translate(947.000000, 0.000000)">
                <g id="Content" transform="translate(80.000000, 315.000000)">
                    <g id="Info">
                        <g id="Dot" transform="translate(142.000000, 103.000000)">
                            <polygon id="Fill-1" fill="#FEFEFE" points="4.49113754 0.00936777409 3.1819814 1.31852392 3.1819814 3.18197243 4.49113754 4.49115847 5.80035349 3.18197243 5.80035349 1.31852392"></polygon>
                            <polygon id="Stroke-2" stroke="#C49650" points="4.49113754 0.00936777409 3.1819814 1.31852392 3.1819814 3.18197243 4.49113754 4.49115847 5.80035349 3.18197243 5.80035349 1.31852392"></polygon>
                            <polygon id="Fill-4" fill="#FEFEFE" points="4.49113754 4.49116146 3.1819814 5.80031761 3.1819814 7.66376611 4.49113754 8.97295216 5.80035349 7.66376611 5.80035349 5.80031761"></polygon>
                            <polygon id="Stroke-5" stroke="#C49650" points="4.49113754 4.49116146 3.1819814 5.80031761 3.1819814 7.66376611 4.49113754 8.97295216 5.80035349 7.66376611 5.80035349 5.80031761"></polygon>
                            <polygon id="Fill-7" fill="#FEFEFE" points="0.00937375415 4.49119136 1.3185598 5.80034751 3.18197841 5.80034751 4.49116445 4.49119136 3.18197841 3.18197542 1.3185598 3.18197542"></polygon>
                            <polygon id="Stroke-8" stroke="#C49650" points="0.00937375415 4.49119136 1.3185598 5.80034751 3.18197841 5.80034751 4.49116445 4.49119136 3.18197841 3.18197542 1.3185598 3.18197542"></polygon>
                            <polygon id="Fill-10" fill="#FEFEFE" points="4.49116744 4.49119136 5.80035349 5.80034751 7.66377209 5.80034751 8.97295814 4.49119136 7.66377209 3.18197542 5.80035349 3.18197542"></polygon>
                            <polygon id="Stroke-11" stroke="#C49650" points="4.49116744 4.49119136 5.80035349 5.80034751 7.66377209 5.80034751 8.97295814 4.49119136 7.66377209 3.18197542 5.80035349 3.18197542"></polygon>
                        </g>
                    </g>
                </g>
            </g>
        </g>
    </g>
</svg>