<?xml version="1.0" encoding="UTF-8"?>
<svg width="78px" height="70px" viewBox="0 0 78 70" version="1.1" xmlns="http://www.w3.org/2000/svg" xmlns:xlink="http://www.w3.org/1999/xlink">
    <!-- Generator: Sketch 46.2 (44496) - http://www.bohemiancoding.com/sketch -->
    <title>Page 1</title>
    <desc>Created with Sketch.</desc>
    <defs></defs>
    <g id="Page-1" stroke="none" stroke-width="1" fill="none" fill-rule="evenodd" stroke-linecap="round" stroke-linejoin="round">
        <g id="Error" transform="translate(-1140.000000, -361.000000)" stroke="#243958" stroke-width="2">
            <g id="Waiting-List" transform="translate(980.000000, 0.000000)">
                <g id="Content" transform="translate(41.000000, 358.000000)">
                    <g id="Info">
                        <g id="Page-1" transform="translate(118.000000, 0.000000)">
                            <path d="M40,47 L40,29" id="Stroke-1"></path>
                            <path d="M40,54 L40,52" id="Stroke-1-Copy"></path>
                            <path d="M73.2019422,72 L6.79805784,72 L6.79805784,72 C4.58891884,72 2.79805784,70.209139 2.79805784,68 C2.79805784,67.320223 2.97129984,66.6516603 3.30142874,66.0574283 L36.5033709,6.29393239 L36.5033709,6.29393239 C37.5762236,4.36279746 40.0114368,3.66702227 41.9425717,4.73987501 C42.595532,5.10263071 43.1338734,5.64097213 43.4966291,6.29393239 L76.6985713,66.0574283 L76.6985713,66.0574283 C77.771424,67.9885632 77.0756488,70.4237764 75.1445139,71.4966291 C74.5502819,71.826758 73.8817192,72 73.2019422,72 Z" id="Stroke-3"></path>
                        </g>
                    </g>
                </g>
            </g>
        </g>
    </g>
</svg>