<?xml version="1.0" encoding="UTF-8"?>
<svg width="18px" height="21px" viewBox="0 0 18 21" version="1.1" xmlns="http://www.w3.org/2000/svg" xmlns:xlink="http://www.w3.org/1999/xlink">
    <!-- Generator: Sketch 46.2 (44496) - http://www.bohemiancoding.com/sketch -->
    <title>Combined Shape</title>
    <desc>Created with Sketch.</desc>
    <defs></defs>
    <g id="Page-1" stroke="none" stroke-width="1" fill="none" fill-rule="evenodd">
        <g id="Payment" transform="translate(-1003.000000, -472.000000)" fill="#243958">
            <g transform="translate(947.000000, 0.000000)" id="Content">
                <g transform="translate(33.000000, 122.000000)">
                    <g id="Payment" transform="translate(0.000000, 188.000000)">
                        <g id="3" transform="translate(0.000000, 144.000000)">
                            <path d="M27.9391822,35.0508785 C27.8994612,35.2591928 27.7185102,35.4092497 27.5066652,35.4092497 L24.3113357,35.4092497 C23.9820932,35.4092497 23.5107379,35.3695287 23.2247471,35.0261632 C22.89727,34.6342499 22.9970137,34.0825701 23.0941093,33.5503094 C23.2565239,32.6570294 24.9309824,22.1971801 25.2258001,20.1228639 C25.5188525,18.0591401 26.9947063,18.0591401 27.5507996,18.0591401 C27.6461298,18.0591401 30.8953033,18 33.499232,18 C35.2866747,18 36.7210422,18.585222 37.5392937,19.6497433 C38.448462,20.8325449 38.6117593,22.5502551 38.0247719,24.755209 C37.1632687,27.9929076 34.6679106,29.6329413 30.6066644,29.6329413 L29.9111065,29.6276452 C28.9127867,29.6276452 28.855412,30.0283854 28.7883277,30.4926792 L28.7680259,30.6215516 C28.6903494,31.0937895 27.9391822,35.0508785 27.9391822,35.0508785 Z M39.217283,23.073689 C40.0187635,24.0358186 40.4962975,25.6317179 39.7901473,28.2859599 C38.4731773,33.2343072 33.7331443,33.1795805 31.9509978,33.1610441 L31.6764819,33.1592787 C30.6781621,33.1592787 30.6207874,33.5591363 30.5537032,34.02343 L30.5334013,34.1531851 C30.4557248,34.6245403 29.7045576,38.5816293 29.7045576,38.5816293 C29.6648366,38.7890609 29.4838856,38.9400005 29.2720406,38.9400005 L26.0767111,38.9400005 C25.7474686,38.9400005 25.2761133,38.9002796 24.9901225,38.5569141 C24.6626454,38.1650007 24.7623891,37.6133209 24.8594847,37.0810602 C24.8806692,36.9680762 24.9274517,36.6900296 24.9927706,36.2919374 L27.5066652,36.2919374 C28.140435,36.2919374 28.6868186,35.8391186 28.8059815,35.2141757 C28.8059815,35.2141757 29.5615622,31.2403156 29.6410041,30.753072 C29.6410041,30.753072 29.6701328,30.5544673 29.6745462,30.5244559 C29.7257421,30.5165117 29.8007705,30.5112156 29.904045,30.5112156 L30.6066644,30.515629 C36.2249717,30.515629 38.2057229,27.5074293 38.8774483,24.9811771 C39.0566339,24.3068037 39.1660871,23.6739166 39.217283,23.073689 Z" id="Combined-Shape"></path>
                        </g>
                    </g>
                </g>
            </g>
        </g>
    </g>
</svg>